<svg width="1570" height="182" viewBox="0 0 1570 182" fill="none" xmlns="http://www.w3.org/2000/svg">
<g clip-path="url(#clip0_677_117)">
<path d="M248.16 4.57007H180.49V176.92H248.16V4.57007Z" fill="white"/>
<path d="M1099.67 176.92H1167.41L1113.87 4.57007H1019.91L966.37 176.92H1034.11L1037.73 164.78H1096.05L1099.67 176.92ZM1052.38 115.63L1066.89 66.9601L1081.4 115.63H1052.38Z" fill="white"/>
<path d="M335.54 118.8V4.56006H267.87V176.92H276.82H335.54H415.95V118.8H335.54Z" fill="white"/>
<path d="M781.69 4.56006H733.85H666.19H618.35V62.6901H666.19V176.92H733.85V62.6901H781.69V4.56006Z" fill="white"/>
<path d="M159.88 39.4201C153.83 28.6801 145.5 20.1901 134.88 13.9401C125.76 8.57007 115.92 5.52007 105.36 4.76007V4.57007H0.0898438V176.92H67.7598V141.46H69.5598V141.71H97.7998C99.8298 141.71 101.84 141.62 103.82 141.46H105.36V141.32C114.96 140.35 124.04 137.52 132.6 132.81C143.38 126.88 152.01 118.75 158.5 108.41C164.99 98.0701 168.36 86.7401 168.6 74.4001C168.84 61.8201 165.94 50.1601 159.89 39.4201H159.88ZM67.7498 89.4201V58.1701H86.1398C90.7098 58.1701 94.5498 59.8701 97.6798 63.2801C100.81 66.6901 102.13 70.7101 101.65 75.3601C101.25 79.3701 99.4698 82.7101 96.2998 85.4001C93.1298 88.0901 89.4698 89.4301 85.2998 89.4301H67.7498V89.4201Z" fill="white"/>
<path d="M467.09 11.48C481.79 3.83 498.52 0 517.27 0C536.02 0 552.74 3.83 567.45 11.48C582.15 19.13 593.59 29.85 601.77 43.63C609.94 57.41 614.03 73.12 614.03 90.75C614.03 108.38 609.94 124.08 601.77 137.87C593.6 151.65 582.16 162.37 567.45 170.02C552.75 177.67 536.02 181.5 517.27 181.5C498.52 181.5 481.79 177.67 467.09 170.02C452.39 162.37 440.95 151.65 432.78 137.87C424.61 124.09 420.52 108.38 420.52 90.75C420.52 73.12 424.61 57.42 432.78 43.63C440.95 29.85 452.39 19.13 467.09 11.48ZM498.76 109.79C503.89 115.04 510.06 117.66 517.27 117.66C524.48 117.66 530.65 115.04 535.78 109.79C540.91 104.54 543.47 98.19 543.47 90.74C543.47 83.29 541.01 76.54 536.08 71.45C531.15 66.36 524.88 63.82 517.27 63.82C509.66 63.82 503.39 66.37 498.46 71.45C493.53 76.54 491.07 82.97 491.07 90.74C491.07 98.51 493.63 104.54 498.76 109.79Z" fill="white"/>
<path d="M957.89 109.19C952.76 100.74 945.75 94.5901 936.86 90.7401C936.22 90.4201 935.86 89.9001 935.78 89.1801C935.7 88.4601 935.98 87.9401 936.62 87.6201C943.59 83.2101 949.02 77.3201 952.91 69.9501C956.8 62.5801 958.42 54.6101 957.78 46.0301C957.3 39.7001 955.32 33.8701 951.83 28.5401C948.34 23.2101 943.84 18.7401 938.31 15.1401C936.15 13.7001 934.06 12.5001 932.06 11.5301C929.01 10.1701 926.85 9.29007 925.57 8.89007C923.49 8.17007 921.24 7.57007 918.84 7.09007C916.03 6.53007 913.71 6.09007 911.87 5.77007C909.62 5.45007 907.3 5.21007 904.9 5.05007C904.1 5.05007 902.92 5.01007 901.35 4.93007C899.79 4.85007 898.6 4.77007 897.8 4.69007C896.2 4.61007 893.83 4.57007 890.71 4.57007H792.63V176.92H905.01C920.55 176.92 933.94 173.13 945.15 165.56C956.37 157.99 962.62 148.47 963.9 137.01C965.02 126.91 963.02 117.64 957.89 109.19ZM859.66 55.5301H891.78C893.7 55.5301 895.34 56.2101 896.71 57.5701C898.07 58.9301 898.75 60.5701 898.75 62.5001V63.2201C898.75 65.1401 898.07 66.7701 896.71 68.0901C895.35 69.4101 893.71 70.0701 891.78 70.0701H854.64V55.5301H859.66ZM898.76 119.11C898.76 121.03 898.08 122.66 896.72 123.98C895.36 125.3 893.72 125.96 891.79 125.96H854.65V111.42H891.79C893.71 111.42 895.35 112.1 896.72 113.46C898.08 114.82 898.76 116.47 898.76 118.39V119.11Z" fill="white"/>
<path d="M1315.85 1.36011C1276.15 1.36011 1243.86 33.6601 1243.86 73.3501V107.94C1243.86 112.6 1240.07 116.39 1235.41 116.39C1230.75 116.39 1226.96 112.6 1226.96 107.94V73.3201H1163.42V107.94C1163.42 147.64 1195.72 179.93 1235.41 179.93C1275.1 179.93 1307.4 147.63 1307.4 107.94V73.3501C1307.4 68.6901 1311.19 64.9001 1315.85 64.9001C1320.51 64.9001 1324.3 68.6901 1324.3 73.3501V109.18H1387.84V73.3501C1387.84 33.6501 1355.54 1.36011 1315.85 1.36011Z" fill="white"/>
<path d="M1557.76 56.6101V4.56006H1469.66H1431.4H1401.99V176.92H1431.4H1469.66H1557.76V124.88H1469.66V110.57H1557.76V71.1501H1469.66V56.6101H1557.76Z" fill="white"/>
</g>
<defs>
<clipPath id="clip0_677_117">
<rect width="1569" height="182" fill="white" transform="translate(0.0898438)"/>
</clipPath>
</defs>
</svg>
