<?xml version="1.0" encoding="UTF-8"?>
<svg id="Layer_2" data-name="Layer 2" xmlns="http://www.w3.org/2000/svg" viewBox="0 0 1569.18 287.66">
  <g id="Layer_1-2" data-name="Layer 1">
    <g>
      <g>
        <rect x="180.4" y="4.57" width="67.67" height="172.35"/>
        <path d="M1099.58,176.92h67.74l-53.54-172.35h-93.96l-53.54,172.35h67.74l3.62-12.14h58.32l3.62,12.14h0ZM1052.29,115.63l14.51-48.67,14.51,48.67h-29.02Z"/>
        <polygon points="335.45 118.8 335.45 4.56 267.78 4.56 267.78 176.92 276.73 176.92 335.45 176.92 415.86 176.92 415.86 118.8 335.45 118.8"/>
        <polygon points="781.6 4.56 733.76 4.56 666.1 4.56 618.26 4.56 618.26 62.69 666.1 62.69 666.1 176.92 733.76 176.92 733.76 62.69 781.6 62.69 781.6 4.56"/>
        <path d="M159.79,39.42c-6.05-10.74-14.38-19.23-25-25.48-9.12-5.37-18.96-8.42-29.52-9.18v-.19H0v172.35h67.67v-35.46h1.8v.25h28.24c2.03,0,4.04-.09,6.02-.25h1.54v-.14c9.6-.97,18.68-3.8,27.24-8.51,10.78-5.93,19.41-14.06,25.9-24.4,6.49-10.34,9.86-21.67,10.1-34.01.24-12.58-2.66-24.24-8.71-34.98h0ZM67.66,89.42v-31.25h18.39c4.57,0,8.41,1.7,11.54,5.11,3.13,3.41,4.45,7.43,3.97,12.08-.4,4.01-2.18,7.35-5.35,10.04-3.17,2.69-6.83,4.03-11,4.03h-17.55,0Z"/>
        <path d="M467,11.48c14.7-7.65,31.43-11.48,50.18-11.48s35.47,3.83,50.18,11.48c14.7,7.65,26.14,18.37,34.32,32.15,8.17,13.78,12.26,29.49,12.26,47.12s-4.09,33.33-12.26,47.12c-8.17,13.78-19.61,24.5-34.32,32.15-14.7,7.65-31.43,11.48-50.18,11.48s-35.48-3.83-50.18-11.48-26.14-18.37-34.31-32.15-12.26-29.49-12.26-47.12,4.09-33.33,12.26-47.12c8.17-13.78,19.61-24.5,34.31-32.15h0ZM498.67,109.79c5.13,5.25,11.3,7.87,18.51,7.87s13.38-2.62,18.51-7.87,7.69-11.6,7.69-19.05-2.46-14.2-7.39-19.29-11.2-7.63-18.81-7.63-13.88,2.55-18.81,7.63c-4.93,5.09-7.39,11.52-7.39,19.29s2.56,13.8,7.69,19.05h0Z"/>
        <path d="M957.8,109.19c-5.13-8.45-12.14-14.6-21.03-18.45-.64-.32-1-.84-1.08-1.56s.2-1.24.84-1.56c6.97-4.41,12.4-10.3,16.29-17.67,3.89-7.37,5.51-15.34,4.87-23.92-.48-6.33-2.46-12.16-5.95-17.49-3.49-5.33-7.99-9.8-13.52-13.4-2.16-1.44-4.25-2.64-6.25-3.61-3.05-1.36-5.21-2.24-6.49-2.64-2.08-.72-4.33-1.32-6.73-1.8-2.81-.56-5.13-1-6.97-1.32-2.25-.32-4.57-.56-6.97-.72-.8,0-1.98-.04-3.55-.12-1.56-.08-2.75-.16-3.55-.24-1.6-.08-3.97-.12-7.09-.12h-98.08v172.35h112.38c15.54,0,28.93-3.79,40.14-11.36,11.22-7.57,17.47-17.09,18.75-28.55,1.12-10.1-.88-19.37-6.01-27.82h0ZM859.57,55.53h32.12c1.92,0,3.56.68,4.93,2.04,1.36,1.36,2.04,3,2.04,4.93v.72c0,1.92-.68,3.55-2.04,4.87-1.36,1.32-3,1.98-4.93,1.98h-37.14v-14.54s5.02,0,5.02,0ZM898.67,119.11c0,1.92-.68,3.55-2.04,4.87-1.36,1.32-3,1.98-4.93,1.98h-37.14v-14.54h37.14c1.92,0,3.56.68,4.93,2.04,1.36,1.36,2.04,3.01,2.04,4.93v.72h0Z"/>
        <path d="M1315.76,1.36c-39.7,0-71.99,32.3-71.99,71.99v34.59c0,4.66-3.79,8.45-8.45,8.45s-8.45-3.79-8.45-8.45v-34.62h-63.54v34.62c0,39.7,32.3,71.99,71.99,71.99s71.99-32.3,71.99-71.99v-34.59c0-4.66,3.79-8.45,8.45-8.45s8.45,3.79,8.45,8.45v35.83h63.54v-35.83c0-39.7-32.3-71.99-71.99-71.99Z"/>
        <polygon points="1557.67 56.61 1557.67 4.56 1469.57 4.56 1431.31 4.56 1401.9 4.56 1401.9 176.92 1431.31 176.92 1469.57 176.92 1557.67 176.92 1557.67 124.88 1469.57 124.88 1469.57 110.57 1557.67 110.57 1557.67 71.15 1469.57 71.15 1469.57 56.61 1557.67 56.61"/>
      </g>
      <g>
        <path d="M1403.45,226.77h26.04c16.24,0,23.76,7.92,23.76,22.77,0,11.78-8.22,21.88-23.07,21.88h-8.91v14.75h-17.82v-59.4ZM1428.2,258.45c6.73,0,8.41-2.97,8.41-8.81s-1.78-8.81-8.61-8.81h-6.73v17.62h6.93Z"/>
        <path d="M1460.87,226.77h25.54c14.45,0,22.97,6.93,22.97,21.58,0,8.51-3.07,14.26-8.42,17.52l11.09,18.31v1.98h-20.79l-7.52-16.73h-5.05v16.73h-17.82v-59.4ZM1484.63,257.36c6.04,0,7.13-2.57,7.13-8.32,0-6.14-2.18-8.41-7.42-8.41h-5.64v16.73h5.94Z"/>
        <path d="M1542.25,225.29c17.33,0,26.93,11.09,26.93,31.19s-9.6,31.18-27.03,31.18-26.93-11.09-26.93-31.18,9.6-31.19,27.03-31.19ZM1542.15,272.71c6.73,0,9.31-4.46,9.31-16.24s-2.48-16.24-9.21-16.24-9.31,4.46-9.31,16.24,2.47,16.24,9.21,16.24Z"/>
      </g>
    </g>
  </g>
</svg>