<?xml version="1.0" encoding="UTF-8"?>
<svg id="Layer_2" data-name="Layer 2" xmlns="http://www.w3.org/2000/svg" viewBox="0 0 451.67 359.39">
  <defs>
    <style>
      .cls-1 {
        fill: #fd7030;
      }

      .cls-2 {
        fill: #f6ac4e;
      }

      .cls-3 {
        fill: #f48222;
      }
    </style>
  </defs>
  <g id="Layer_1-2" data-name="Layer 1">
    <path class="cls-3" d="M144.89,316.76c-56.39,0-102.26-45.87-102.26-102.26v-69.67h42.62v69.67c0,32.88,26.75,59.64,59.64,59.64s59.64-26.75,59.64-59.64v-69.61c0-56.39,45.88-102.26,102.26-102.26s102.26,45.88,102.26,102.26v72.1h-42.62v-72.1c0-32.88-26.75-59.64-59.64-59.64s-59.64,26.75-59.64,59.64v69.61c0,56.39-45.88,102.26-102.26,102.26h0Z"/>
    <path class="cls-2" d="M144.89,274.14c32.88,0,59.64-26.75,59.64-59.64v-69.61c0-56.39,45.88-102.26,102.26-102.26s102.26,45.88,102.26,102.26v72.1h42.62v-72.1C451.67,65,386.67,0,306.78,0s-144.89,65-144.89,144.89v69.61c0,9.38-7.63,17.01-17.01,17.01s-17.01-7.63-17.01-17.01v-69.67h-42.62v69.67c0,32.88,26.75,59.64,59.64,59.64Z"/>
    <path class="cls-1" d="M323.8,144.89v72.1h42.62v-72.1c0-32.88-26.75-59.64-59.64-59.64s-59.64,26.75-59.64,59.64v69.61c0,56.39-45.88,102.26-102.26,102.26s-102.26-45.87-102.26-102.26v-69.67H0v69.67c0,79.89,65,144.89,144.89,144.89s144.89-65,144.89-144.89v-69.61c0-9.38,7.63-17.01,17.01-17.01s17.01,7.63,17.01,17.01h0Z"/>
  </g>
</svg>