<svg width="170" height="28" viewBox="0 0 170 28" fill="none" xmlns="http://www.w3.org/2000/svg">
<path d="M0.00517174 21.5127V5.71265H3.49801V18.5896H9.17453V21.5127H0H0.00517174Z" fill="black"/>
<path d="M27.4567 21.7691C22.5201 21.7691 19.2653 18.046 19.2653 13.5435C19.2653 9.04092 22.5615 5.44604 27.4981 5.44604C32.4346 5.44604 35.6894 8.84605 35.6894 13.5435C35.6894 18.2409 32.3932 21.7691 27.4567 21.7691ZM27.5033 8.48194C24.7711 8.48194 22.872 10.9076 22.872 13.5486C22.872 16.4512 24.9677 18.7435 27.4567 18.7435C30.3389 18.7435 32.0879 16.2101 32.0879 13.5486C32.0879 10.8871 30.2768 8.48194 27.5033 8.48194Z" fill="black"/>
<path d="M53.9505 21.7691C49.2106 21.7691 45.7799 18.4153 45.7799 13.5435C45.7799 8.67169 49.4487 5.44604 53.8833 5.44604C56.6982 5.44604 58.6439 6.5281 60.041 8.0204L57.878 10.1178C56.8949 9.0563 55.4977 8.47169 53.8833 8.47169C51.2184 8.47169 49.2313 10.8101 49.2313 13.5384C49.2313 16.2666 51.2184 18.7332 53.9505 18.7332C55.8703 18.7332 57.2726 17.9743 57.8832 16.4614H53.8212V13.5384H61.7486C61.7486 18.7537 58.2972 21.764 53.9505 21.764V21.7691Z" fill="black"/>
<path d="M87.6873 27.6C95.3777 27.6 101.612 21.4215 101.612 13.8C101.612 6.17847 95.3777 0 87.6873 0C79.9968 0 73.7625 6.17847 73.7625 13.8C73.7625 21.4215 79.9968 27.6 87.6873 27.6Z" fill="url(#paint0_radial_2_389)"/>
<path fill-rule="evenodd" clip-rule="evenodd" d="M93.8033 3.22583C93.8654 3.11814 94 3.08224 94.1086 3.14378C94.2173 3.20532 94.2535 3.33865 94.1914 3.44635L93.7982 4.11814C93.7361 4.22583 93.6015 4.26173 93.4929 4.20019C93.3842 4.13865 93.348 4.00532 93.4101 3.89763L93.8033 3.22583Z" fill="white"/>
<path fill-rule="evenodd" clip-rule="evenodd" d="M82.0934 23.3334C82.1606 23.2206 82.3107 23.1796 82.4245 23.2462C82.5384 23.3129 82.5798 23.4616 82.5125 23.5744L82.0882 24.3026C82.0209 24.4155 81.8708 24.4565 81.757 24.3898C81.638 24.3231 81.6018 24.1744 81.669 24.0616L82.0934 23.3334Z" fill="white"/>
<path fill-rule="evenodd" clip-rule="evenodd" d="M98.3361 7.54881C98.4448 7.48727 98.5793 7.52317 98.6414 7.63086C98.7035 7.73855 98.6673 7.87189 98.5586 7.93343L97.8808 8.32317C97.7721 8.38471 97.6376 8.34881 97.5755 8.24112C97.5134 8.13343 97.5496 8.00009 97.6583 7.93855L98.3361 7.54881Z" fill="white"/>
<path fill-rule="evenodd" clip-rule="evenodd" d="M78.0525 19.1593C78.1715 19.0926 78.3164 19.1337 78.3837 19.2465C78.4509 19.3593 78.4095 19.508 78.2957 19.5747L77.5609 19.9952C77.4419 20.0619 77.297 20.0208 77.2297 19.908C77.1625 19.7901 77.2039 19.6465 77.3177 19.5798L78.0525 19.1593Z" fill="white"/>
<path fill-rule="evenodd" clip-rule="evenodd" d="M98.5686 19.5899C98.6773 19.6515 98.7135 19.7848 98.6514 19.8925C98.5893 20.0002 98.4548 20.0361 98.3461 19.9745L97.6683 19.5848C97.5596 19.5233 97.5234 19.3899 97.5855 19.2822C97.6476 19.1745 97.7821 19.1386 97.8908 19.2002L98.5686 19.5899Z" fill="white"/>
<path fill-rule="evenodd" clip-rule="evenodd" d="M78.2789 7.98989C78.398 8.05655 78.4342 8.20527 78.3669 8.31809C78.2996 8.43091 78.1496 8.47194 78.0357 8.40527L77.301 7.98476C77.1819 7.91809 77.1457 7.76937 77.213 7.65655C77.2803 7.5386 77.4303 7.50271 77.5442 7.56937L78.2789 7.98989Z" fill="white"/>
<path fill-rule="evenodd" clip-rule="evenodd" d="M94.196 24.0719C94.258 24.1796 94.2218 24.313 94.1132 24.3745C94.0045 24.436 93.87 24.4001 93.8079 24.2925L93.4146 23.6207C93.3525 23.513 93.3887 23.3796 93.4974 23.3181C93.6061 23.2566 93.7406 23.2925 93.8027 23.4001L94.196 24.0719Z" fill="white"/>
<path fill-rule="evenodd" clip-rule="evenodd" d="M82.4813 3.96932C82.5485 4.08727 82.5071 4.23086 82.3933 4.29753C82.2743 4.36419 82.1294 4.32317 82.0621 4.21035L81.6378 3.48214C81.5705 3.36419 81.6119 3.2206 81.7258 3.15394C81.8448 3.08727 81.9897 3.12829 82.0569 3.24111L82.4813 3.96932Z" fill="white"/>
<path fill-rule="evenodd" clip-rule="evenodd" d="M87.8888 9.15919C87.9509 9.18995 88.0182 9.21047 88.0699 9.25149C88.1579 9.31816 88.1941 9.41047 88.1941 9.52842C88.1941 10.2259 88.2044 10.9233 88.2044 11.6207C88.2044 11.6823 88.2251 11.6976 88.2821 11.6925C89.3636 11.6925 90.445 11.6925 91.5317 11.6823C92.3338 11.6823 93.1358 11.672 93.9379 11.6669C93.9689 11.6669 93.9948 11.6669 94.0258 11.672C94.119 11.6925 94.1863 11.7694 94.1914 11.8669C94.1914 11.9643 94.1397 12.0515 94.0465 12.072C93.9431 12.0976 93.8344 12.113 93.7309 12.1233C93.467 12.1438 93.2031 12.1592 92.9392 12.1746C92.6908 12.19 92.4476 12.2053 92.1992 12.2207C91.8474 12.2412 91.4955 12.2669 91.1436 12.2874C90.7917 12.3079 90.4399 12.3335 90.088 12.3541C89.85 12.3694 89.6119 12.3848 89.3791 12.4002C89.2963 12.4053 89.2135 12.4105 89.1255 12.4156C89.0945 12.4156 89.0686 12.4207 89.0324 12.4259C89.1152 12.513 89.198 12.59 89.2704 12.672C89.4153 12.8361 89.524 13.0259 89.6119 13.2207C89.6326 13.272 89.6637 13.2925 89.7206 13.2925C89.7672 13.2925 89.8189 13.2925 89.8655 13.2925C91.1126 13.2925 92.3545 13.2925 93.6015 13.2925C95.0349 13.2925 96.4734 13.2925 97.9068 13.2925C98.476 13.2925 99.0504 13.2925 99.6196 13.2925C99.6868 13.2925 99.7489 13.2925 99.8162 13.2874C99.93 13.2823 100.008 13.3284 100.054 13.431C100.059 13.4464 100.07 13.4566 100.075 13.4669V13.6823C100.075 13.6823 100.049 13.7335 100.034 13.7541C99.9921 13.8156 99.9404 13.8515 99.8628 13.8566C99.4229 13.8823 98.9831 13.9079 98.5433 13.9335C97.9534 13.9694 97.3583 14.0002 96.7684 14.0361C96.3751 14.0566 95.9818 14.0874 95.5937 14.1079C95.2005 14.1335 94.802 14.1541 94.4088 14.1746C93.9741 14.2002 93.5446 14.2259 93.1099 14.2515C92.7426 14.272 92.3803 14.2976 92.0129 14.3182C91.6352 14.3387 91.2575 14.3592 90.8797 14.3797C90.502 14.4002 90.1242 14.431 89.7465 14.4464C89.674 14.4464 89.643 14.4669 89.6119 14.5387C89.3687 15.0925 88.9806 15.5028 88.3804 15.6669C88.251 15.7028 88.1165 15.713 87.9871 15.7335H87.7853C87.7853 15.7335 87.7491 15.7233 87.7284 15.7233C87.5214 15.7079 87.3248 15.6566 87.1333 15.5694C86.6883 15.3541 86.383 15.0002 86.1708 14.5643C86.145 14.513 86.1243 14.4925 86.0622 14.4874C85.7517 14.472 85.4412 14.4515 85.1307 14.4259C84.7841 14.4002 84.4322 14.3746 84.0855 14.3541C83.7388 14.3284 83.3869 14.3079 83.0402 14.2874C82.7142 14.2669 82.3882 14.2412 82.0622 14.2207C81.7259 14.2002 81.3947 14.1797 81.0584 14.1592C80.7117 14.1387 80.3701 14.113 80.0234 14.0874C79.5888 14.0566 79.1541 14.031 78.7194 14.0053C78.2796 13.9746 77.8398 13.9438 77.3999 13.913C76.9704 13.8823 76.5461 13.8566 76.1166 13.831C75.9355 13.8207 75.7699 13.8053 75.7027 13.6053V13.4925C75.7027 13.4925 75.7027 13.4925 75.7078 13.4925C75.7699 13.3079 75.9097 13.2823 76.0908 13.2874C76.6082 13.2976 77.1257 13.2874 77.6483 13.2874C79.1075 13.2874 80.5668 13.2874 82.026 13.2823C82.7556 13.2823 83.4852 13.2823 84.2148 13.2823C84.8358 13.2823 85.4516 13.2823 86.0725 13.2823C86.1139 13.2823 86.1501 13.2823 86.1657 13.231C86.2795 12.9182 86.4865 12.672 86.7349 12.4566C86.74 12.4515 86.7504 12.4464 86.7607 12.4412C86.7607 12.4361 86.7607 12.431 86.7556 12.4207C86.6676 12.4105 86.5848 12.4053 86.4968 12.3951C86.1501 12.3694 85.8086 12.3489 85.4619 12.3233C85.1463 12.3028 84.8254 12.2823 84.5098 12.2617C84.1942 12.2412 83.8785 12.2156 83.5629 12.1951C83.2317 12.1694 82.8953 12.1489 82.5642 12.1284C82.3054 12.1079 82.0415 12.0925 81.7828 12.072C81.669 12.0617 81.5913 11.9694 81.5913 11.8566C81.5913 11.7438 81.6793 11.6566 81.8035 11.6566C82.0053 11.6566 82.2123 11.6566 82.4141 11.6566C82.797 11.6566 83.1799 11.6566 83.5577 11.6566C84.0389 11.6566 84.5201 11.6566 84.9962 11.6617C85.8241 11.6617 86.6521 11.6617 87.48 11.672C87.5473 11.672 87.568 11.6515 87.568 11.5848C87.568 10.8976 87.568 10.2156 87.568 9.52842C87.568 9.36944 87.6715 9.2156 87.8267 9.15406C87.8371 9.15406 87.8474 9.1438 87.8578 9.13867H87.8991L87.8888 9.15919Z" fill="white"/>
<path fill-rule="evenodd" clip-rule="evenodd" d="M88.1159 25.8206C88.1159 25.9436 88.0175 26.0411 87.8933 26.0411C87.7692 26.0411 87.6708 25.9436 87.6708 25.8206V25.0411C87.6708 24.918 87.7692 24.8206 87.8933 24.8206C88.0175 24.8206 88.1159 24.918 88.1159 25.0411V25.8206Z" fill="white"/>
<path fill-rule="evenodd" clip-rule="evenodd" d="M88.1116 2.60525C88.1116 2.73858 88.003 2.84627 87.8684 2.84627C87.7339 2.84627 87.6252 2.73858 87.6252 2.60525V1.75909C87.6252 1.62576 87.7339 1.51807 87.8684 1.51807C88.003 1.51807 88.1116 1.62576 88.1116 1.75909V2.60525Z" fill="white"/>
<path d="M119.435 8.63084V21.5078H115.942V8.63084H112.775V5.70776H122.514V8.63084H119.435Z" fill="black"/>
<path d="M135.719 21.5129V5.71289H145.002V8.63597H139.217V12.3385H144.588V15.2616H139.217V18.5949H145.334V21.518H135.724L135.719 21.5129Z" fill="black"/>
<path d="M166.917 21.5129L159.885 12.3129C159.688 12.0308 159.513 11.7283 159.492 11.6873C159.492 11.7078 159.533 12.0975 159.533 12.4667V21.5129H156.04V5.71289H159.052L166.084 14.8257C166.302 15.1078 166.457 15.4103 166.478 15.477C166.478 15.477 166.436 15.0667 166.436 14.677V5.71289H169.929V21.5129H166.917Z" fill="black"/>
<defs>
<radialGradient id="paint0_radial_2_389" cx="0" cy="0" r="1" gradientUnits="userSpaceOnUse" gradientTransform="translate(87.6873 13.8) scale(13.9248 13.8)">
<stop stop-color="#ACD5FF"/>
<stop offset="1" stop-color="#5177BB"/>
</radialGradient>
</defs>
</svg>
