<?xml version="1.0" encoding="UTF-8"?>
<svg id="Layer_2" data-name="Layer 2" xmlns="http://www.w3.org/2000/svg" viewBox="0 0 1557.7 181.6">
  <g id="Layer_1-2" data-name="Layer 1">
    <g>
      <rect x="180.4" y="4.6" width="67.7" height="172.3"/>
      <path d="M1099.6,176.9h67.7l-53.5-172.4h-94l-53.5,172.4h67.7l3.6-12.1h58.3l3.6,12.1h.1ZM1052.3,115.6l14.5-48.7,14.5,48.7h-29Z"/>
      <polygon points="335.5 118.8 335.5 4.5 267.8 4.5 267.8 176.9 276.8 176.9 335.5 176.9 415.9 176.9 415.9 118.8 335.5 118.8"/>
      <polygon points="781.6 4.5 733.8 4.5 666.1 4.5 618.3 4.5 618.3 62.7 666.1 62.7 666.1 176.9 733.8 176.9 733.8 62.7 781.6 62.7 781.6 4.5"/>
      <path d="M159.8,39.4c-6.1-10.7-14.4-19.2-25-25.5-9.1-5.4-19-8.4-29.5-9.2v-.2H0v172.3h67.7v-35.5h1.8v.2h28.2c2,0,4,0,6-.2h1.5c9.6-1.1,18.7-3.9,27.2-8.6,10.8-5.9,19.4-14.1,25.9-24.4,6.5-10.3,9.9-21.7,10.1-34,.2-12.6-2.7-24.2-8.7-35h0l.1.1ZM67.7,89.4v-31.2h18.4c4.6,0,8.4,1.7,11.5,5.1s4.4,7.4,4,12.1c-.4,4-2.2,7.4-5.4,10-3.2,2.7-6.8,4-11,4h-17.6.1Z"/>
      <path d="M467,11.5c14.7-7.7,31.4-11.5,50.2-11.5s35.5,3.8,50.2,11.5,26.1,18.4,34.3,32.2c8.2,13.8,12.3,29.5,12.3,47.1s-4.1,33.3-12.3,47.1-19.6,24.5-34.3,32.2c-14.7,7.6-31.4,11.5-50.2,11.5s-35.5-3.8-50.2-11.5-26.1-18.4-34.3-32.1-12.3-29.5-12.3-47.1,4.1-33.3,12.3-47.1c8.2-13.8,19.6-24.5,34.3-32.2h0v-.1ZM498.7,109.8c5.1,5.2,11.3,7.9,18.5,7.9s13.4-2.6,18.5-7.9,7.7-11.6,7.7-19.1-2.5-14.2-7.4-19.3-11.2-7.6-18.8-7.6-13.9,2.5-18.8,7.6c-4.9,5.1-7.4,11.5-7.4,19.3s2.6,13.8,7.7,19.1h0Z"/>
      <path d="M957.8,109.2c-5.1-8.4-12.1-14.6-21-18.4-.6-.3-1-.8-1.1-1.6s.2-1.2.8-1.6c7-4.4,12.4-10.3,16.3-17.7,3.9-7.4,5.5-15.3,4.9-23.9-.5-6.3-2.5-12.2-5.9-17.5-3.5-5.3-8-9.8-13.5-13.4-2.2-1.4-4.2-2.6-6.2-3.6-3-1.4-5.2-2.2-6.5-2.6-2.1-.7-4.3-1.3-6.7-1.8-2.8-.6-5.1-1-7-1.3-2.2-.3-4.6-.6-7-.7-.8,0-2,0-3.5-.1-1.6,0-2.8-.2-3.5-.2-1.6,0-4-.1-7.1-.1h-98.1v172.4h112.4c15.5,0,28.9-3.8,40.1-11.4,11.2-7.6,17.5-17.1,18.8-28.6,1.1-10.1-.9-19.4-6-27.8h0l-.2-.1ZM859.6,55.5h32.1c1.9,0,3.6.7,4.9,2,1.4,1.4,2,3,2,4.9v.7c0,1.9-.7,3.6-2,4.9-1.4,1.3-3,2-4.9,2h-37.1v-14.5h5ZM898.7,119.1c0,1.9-.7,3.6-2,4.9-1.4,1.3-3,2-4.9,2h-37.1v-14.5h37.1c1.9,0,3.6.7,4.9,2,1.4,1.4,2,3,2,4.9v.7h0Z"/>
      <path d="M1315.8,1.3c-39.7,0-72,32.3-72,72v34.6c0,4.7-3.8,8.4-8.4,8.4s-8.4-3.8-8.4-8.4v-34.6h-63.5v34.6c0,39.7,32.3,72,72,72s72-32.3,72-72v-34.6c0-4.7,3.8-8.4,8.4-8.4s8.4,3.8,8.4,8.4v35.8h63.5v-35.8c0-39.7-32.3-72-72-72Z"/>
      <polygon points="1557.7 56.6 1557.7 4.5 1469.6 4.5 1431.4 4.5 1401.9 4.5 1401.9 176.9 1431.4 176.9 1469.6 176.9 1557.7 176.9 1557.7 124.9 1469.6 124.9 1469.6 110.6 1557.7 110.6 1557.7 71.1 1469.6 71.1 1469.6 56.6 1557.7 56.6"/>
    </g>
  </g>
</svg>