<svg width="148" height="128" viewBox="0 0 148 128" fill="none" xmlns="http://www.w3.org/2000/svg">
<circle cx="73.7125" cy="63.7144" r="63.7144" fill="#E5F2FF"/>
<g clip-path="url(#clip0_1_2678)">
<path d="M121.38 86.385C121.618 86.1721 122.86 71.1434 123.815 59.1292C124.523 58.681 125.112 58.308 125.112 58.308L126.592 58.8308L131.961 55.4259L129.36 51.3245L124.17 54.614C124.351 52.3405 124.508 50.2976 124.64 48.6438C130.26 44.8542 141.082 37.5002 142.76 36.0523C145.044 34.0784 147.63 30.3486 147.033 29.5797C146.439 28.8058 141.941 29.4597 139.598 30.2156C137.818 30.7886 125.393 38.411 119.377 42.1327C117.65 41.4325 115.61 40.6099 113.39 39.7203L119.532 35.829L116.931 31.7276L111.562 35.1325L111.401 36.6957C111.401 36.6957 110.253 37.4241 109.239 38.0659C97.1922 33.2537 82.539 27.5334 82.0614 27.9592C81.2491 28.6874 80.8174 32.3539 80.8174 32.3539L90.6239 39.2361C89.7177 39.8952 89.1525 40.5105 89.2885 40.7263C89.4421 40.9714 90.4508 40.6182 91.608 39.9273L96.5285 43.3833C95.8594 43.9257 95.47 44.3901 95.5835 44.5747C95.7164 44.7837 96.4929 44.549 97.4481 44.0334L107.169 50.8552L94.4853 59.953L80.0979 54.6506L77.3046 57.2721L86.5449 64.8945L90.2557 63.9076C90.2557 63.9076 86.9779 66.0867 87.5887 66.878C88.1994 67.6694 91.4457 66.2018 91.4457 66.2018L89.3252 68.607L91.4362 80.1403L96.803 78.8818L97.3337 63.6509L111.036 56.573L112.606 66.7601C111.441 67.5335 110.645 68.3248 110.807 68.5787C110.946 68.8014 111.781 68.5316 112.794 67.969L113.705 73.9013C113.705 73.9013 113.66 73.9301 113.638 73.9445C112.341 74.7656 111.425 75.649 111.598 75.9185C111.752 76.1637 112.749 75.8117 113.897 75.1289L115.599 86.1853C115.599 86.1853 120.975 86.7526 121.371 86.3932L121.38 86.385Z" fill="#6DB3FF"/>
</g>
<path d="M60.3747 82.333C56.0774 84.2823 51.7325 86.0973 47.3448 87.7306C42.9617 89.3606 38.5312 90.8121 34.0897 91.9543C31.8729 92.5261 29.6519 93.0122 27.4574 93.3781C25.2676 93.7407 23.088 93.984 21.0366 94.0169C20.0151 94.0321 19.0249 93.9884 18.125 93.8727C17.229 93.7578 16.4154 93.5693 15.8224 93.3251C15.5302 93.2017 15.3041 93.0705 15.1398 92.9549C14.9933 92.8305 14.9234 92.7285 14.9102 92.6695C14.897 92.6104 14.9575 92.5894 14.9948 92.5843C15.0361 92.5798 15.0727 92.5786 15.099 92.5027C15.1412 92.3853 15.1802 91.9601 15.3559 91.3664C15.4239 91.1326 15.5133 90.8704 15.6159 90.6026C13.0168 84.7651 11.3155 78.4932 10.6312 71.9911C9.57481 73.6206 8.56112 75.3025 7.60142 77.0633C6.32915 79.4366 5.13944 81.9304 4.23209 84.8165C3.78354 86.2645 3.40802 87.8192 3.22274 89.5671C3.13877 90.4487 3.09192 91.3696 3.15982 92.3686C3.21502 93.3489 3.38352 94.4152 3.70725 95.4943C4.31201 97.6647 5.79006 99.8771 7.59839 101.274C8.49719 101.98 9.43739 102.507 10.3565 102.909C11.2708 103.295 12.1618 103.566 13.0159 103.754C14.7177 104.121 16.2796 104.199 17.7505 104.178C19.223 104.151 20.6129 104.002 21.953 103.796C24.6268 103.374 27.1254 102.722 29.5457 101.97C31.9628 101.213 34.2998 100.344 36.5806 99.4085C41.1468 97.5338 45.5165 95.3919 49.7767 93.1002C54.0369 90.8086 58.1813 88.3578 62.2378 85.7936C70.3469 80.6645 78.1114 75.087 85.5765 69.1868C77.3715 74.0069 68.9645 78.4377 60.3693 82.3401L60.3747 82.333Z" fill="#6DB3FF"/>
<defs>
<clipPath id="clip0_1_2678">
<rect width="66.8516" height="61.8829" fill="white" transform="translate(147.326 29.6035) rotate(110.431)"/>
</clipPath>
</defs>
</svg>
